<svg width="8" height="11" viewBox="0 0 8 11" fill="none" xmlns="http://www.w3.org/2000/svg">
<path d="M6.69375 6.14059L1.55438 10.6368C0.949688 11.1675 3.44724e-07 10.7362 3.44724e-07 9.9309V0.9384C-0.000154181 0.758171 0.0516448 0.581717 0.149195 0.43017C0.246744 0.278623 0.38591 0.158406 0.550025 0.0839164C0.71414 0.00942648 0.896248 -0.0161791 1.07454 0.0101663C1.25283 0.0365118 1.41975 0.113691 1.55531 0.232462L6.69281 4.72871C6.79351 4.81671 6.87421 4.92523 6.92951 5.04699C6.98481 5.16874 7.01342 5.30092 7.01342 5.43465C7.01342 5.56838 6.98481 5.70056 6.92951 5.82232C6.87421 5.94407 6.79351 6.05259 6.69281 6.14059H6.69375Z" fill="#242424"/>
</svg>
