<svg width="852" height="598" viewBox="0 0 852 598" fill="none" xmlns="http://www.w3.org/2000/svg">
<path d="M50.4294 316.747C56.4463 298.319 60.2151 267.9 60.9046 233.602C61.6013 198.942 59.1789 158.931 52.0797 120.83C45.0218 82.9505 33.1266 45.772 14.1267 17.6842C9.83073 11.3334 5.12713 5.3947 0 0H851.269V597.505C839.004 585.021 822.732 569.424 802.983 552.638C755.918 512.635 688.539 465.393 608.136 437.812C526.262 409.726 451.587 418.76 381.431 434.033C363.624 437.909 346.271 442.128 329.211 446.275C278.039 458.715 229.506 470.514 179.269 470.514C114.514 470.514 78.75 445.523 60.7344 415.544C42.1441 384.609 40.9206 345.869 50.4294 316.747Z" fill="white"/>
</svg>
