<svg width="48" height="48" viewBox="0 0 48 48" fill="none" xmlns="http://www.w3.org/2000/svg">
<g clip-path="url(#clip0_501_41)">
<path fill-rule="evenodd" clip-rule="evenodd" d="M48 24C48 37.2548 37.2548 48 24 48C10.7452 48 0 37.2548 0 24C0 10.7452 10.7452 0 24 0C37.2548 0 48 10.7452 48 24ZM31.12 39.0679L32.8793 40.0655L32.8791 36.7143C32.1829 37.003 31.4268 37.1617 30.6324 37.1617C29.8407 37.1617 29.0823 37.003 28.3856 36.7143L28.3854 40.069L30.1603 39.0679C30.4621 38.8993 30.8206 38.8993 31.12 39.0679ZM13.3487 19.8832C13.3487 20.4552 13.7977 20.9191 14.3472 20.9191H23.7299C24.279 20.9191 24.7279 20.4552 24.7279 19.8832C24.7279 19.3112 24.2794 18.848 23.7299 18.848H14.3472C13.7977 18.848 13.3487 19.3111 13.3487 19.8832ZM14.3472 27.4139H21.0028C21.5521 27.4139 22.0009 26.951 22.0009 26.3787C22.0009 25.8067 21.5521 25.3435 21.0028 25.3435H14.3472C13.7977 25.3435 13.3487 25.8067 13.3487 26.3787C13.3487 26.9507 13.7977 27.4139 14.3472 27.4139ZM24.7199 32.2617H10.0003L10 14H37.9998L38 32.2617H36.5476C36.6405 31.8192 36.6923 31.3594 36.6923 30.8879C36.6923 27.4282 33.9733 24.6131 30.6327 24.6131C27.292 24.6131 24.5757 27.4282 24.5757 30.8879C24.5757 31.3596 24.6245 31.8192 24.7199 32.2617ZM26.575 30.8877C26.575 33.2053 28.3963 35.0906 30.6329 35.0906C32.8695 35.0906 34.6932 33.2054 34.6932 30.8877C34.6932 28.5703 32.8695 26.6838 30.6329 26.6838C28.3962 26.6838 26.575 28.5703 26.575 30.8877Z" fill="#242424"/>
</g>
<defs>
<clipPath id="clip0_501_41">
<rect width="48" height="48" fill="white"/>
</clipPath>
</defs>
</svg>
