<svg width="48" height="48" viewBox="0 0 48 48" fill="none" xmlns="http://www.w3.org/2000/svg">
<path fill-rule="evenodd" clip-rule="evenodd" d="M48 24C48 37.2548 37.2548 48 24 48C10.7452 48 0 37.2548 0 24C0 10.7452 10.7452 0 24 0C37.2548 0 48 10.7452 48 24ZM38.7219 32.7432C38.7554 32.7968 38.7915 32.8638 38.8303 32.9446C38.869 33.0251 38.908 33.1676 38.9475 33.3713C38.986 33.5756 38.9836 33.7584 38.939 33.9194C38.8943 34.0803 38.7557 34.2282 38.5224 34.3624C38.2896 34.4965 37.9613 34.564 37.5395 34.564L33.2744 34.6283C33.0074 34.682 32.6965 34.6552 32.3416 34.5478C31.9861 34.4404 31.6973 34.3223 31.4749 34.1933L31.1418 33.9999C30.8087 33.774 30.42 33.4307 29.9755 32.9687C29.5313 32.5069 29.151 32.091 28.8344 31.7202C28.5176 31.3498 28.179 31.0382 27.8179 30.7857C27.4566 30.5331 27.1429 30.4499 26.8763 30.5358C26.843 30.5468 26.7988 30.5651 26.7435 30.5922C26.6878 30.619 26.5929 30.6971 26.4598 30.8259C26.3269 30.9545 26.2075 31.113 26.1017 31.3009C25.9958 31.489 25.9012 31.7683 25.8181 32.1387C25.735 32.5093 25.6987 32.9254 25.7101 33.3872C25.7101 33.5481 25.6907 33.696 25.6517 33.8302C25.6132 33.9643 25.5715 34.0639 25.5269 34.128L25.4606 34.2087C25.2605 34.4127 24.9661 34.5308 24.5775 34.5633H22.6614C21.8728 34.6059 21.062 34.5175 20.2289 34.2972C19.3958 34.077 18.6656 33.7924 18.0379 33.4436C17.4103 33.0942 16.8384 32.7398 16.3218 32.3799C15.8053 32.0201 15.4138 31.7113 15.1472 31.4535L14.7306 31.0669C14.6196 30.9595 14.4668 30.7987 14.2723 30.5835C14.078 30.3688 13.681 29.8801 13.0812 29.1174C12.4813 28.355 11.8926 27.5439 11.3151 26.6846C10.7376 25.8258 10.0572 24.6924 9.27419 23.2853C8.49117 21.8783 7.76645 20.4176 7.10002 18.9029C7.03332 18.7312 7 18.5862 7 18.468C7 18.3498 7.01681 18.2639 7.05013 18.2101L7.11683 18.1136C7.28349 17.9095 7.60002 17.8073 8.06651 17.8073L12.6316 17.7752C12.765 17.7966 12.8926 17.8314 13.0149 17.8799C13.1369 17.9284 13.2259 17.9739 13.2814 18.0168L13.3648 18.0653C13.5425 18.1835 13.6758 18.3552 13.7646 18.5807C13.9866 19.1178 14.242 19.6737 14.531 20.2485C14.8198 20.823 15.0474 21.2608 15.214 21.5615L15.4805 22.0288C15.8026 22.6733 16.1137 23.2318 16.4135 23.7043C16.7135 24.1769 16.9828 24.5447 17.2217 24.808C17.4605 25.0712 17.691 25.2778 17.913 25.4283C18.1351 25.5787 18.3238 25.654 18.4795 25.654C18.6349 25.654 18.785 25.6268 18.9294 25.5733C18.9515 25.5627 18.9792 25.5356 19.0126 25.4927C19.0459 25.4498 19.1125 25.3317 19.2126 25.1383C19.3125 24.9451 19.3874 24.6927 19.4376 24.3812C19.4877 24.0697 19.5402 23.6347 19.5958 23.0761C19.6513 22.5176 19.6513 21.8463 19.5958 21.0621C19.5738 20.6327 19.5236 20.2406 19.446 19.8863C19.3682 19.5319 19.2905 19.2847 19.2126 19.1451L19.1125 18.9516C18.8348 18.5864 18.3629 18.3555 17.6964 18.2589C17.552 18.2377 17.5799 18.1087 17.7799 17.8723C17.9686 17.6683 18.1797 17.5071 18.413 17.3891C19.0017 17.1098 20.3291 16.9808 22.3949 17.0023C23.3059 17.0131 24.0556 17.0828 24.6444 17.2117C24.8662 17.2655 25.0526 17.3379 25.2025 17.4292C25.3521 17.5207 25.4661 17.6494 25.544 17.8159C25.6215 17.9826 25.6803 18.1544 25.7185 18.3315C25.7573 18.5088 25.7769 18.7531 25.7769 19.0646C25.7769 19.3761 25.7716 19.6716 25.7603 19.9509C25.7489 20.2299 25.7353 20.6086 25.7185 21.0865C25.702 21.5645 25.6938 22.0076 25.6938 22.4158C25.6938 22.5339 25.6886 22.7593 25.677 23.0924C25.6658 23.4254 25.6634 23.6834 25.6686 23.8659C25.6742 24.0485 25.6938 24.2658 25.7269 24.5184C25.7603 24.7708 25.824 24.9803 25.9186 25.1468C26.0129 25.3133 26.1379 25.4448 26.2933 25.5415C26.3825 25.563 26.4768 25.5844 26.5768 25.606C26.6767 25.6277 26.8209 25.5686 27.0098 25.4287C27.199 25.289 27.4096 25.1039 27.6431 24.8729C27.8761 24.6422 28.1649 24.2822 28.5092 23.7937C28.8539 23.3049 29.2313 22.7277 29.6423 22.0616C30.3089 20.9446 30.9029 19.7363 31.4253 18.4366C31.4696 18.3292 31.5251 18.235 31.5915 18.1547C31.6582 18.0741 31.7193 18.0177 31.7748 17.9857L31.8411 17.9372L31.9246 17.8968L32.1413 17.8484C32.2859 17.8161 32.3969 17.8136 32.4746 17.8402L37.2729 17.8082C37.7062 17.7545 38.0615 17.7678 38.3395 17.8484C38.6169 17.9291 38.789 18.0175 38.8557 18.1143L38.955 18.2749C39.2106 18.9624 38.3774 20.5411 36.4557 23.0117C36.1893 23.3555 35.8285 23.8118 35.3729 24.3811C34.5068 25.4554 34.0065 26.1585 33.8734 26.4914C33.6849 26.9321 33.7621 27.367 34.107 27.7967C34.2955 28.0223 34.7456 28.4628 35.4564 29.118H35.4732L35.4899 29.1342L35.5065 29.15L35.5396 29.1822C37.1057 30.5894 38.1667 31.7762 38.7219 32.7432Z" fill="#242424"/>
</svg>
